<?xml version="1.0" encoding="utf-8"?>
<!-- Generator: Adobe Illustrator 26.1.0, SVG Export Plug-In . SVG Version: 6.00 Build 0)  -->
<svg version="1.1" id="Слой_1" xmlns="http://www.w3.org/2000/svg" xmlns:xlink="http://www.w3.org/1999/xlink" x="0px" y="0px"
	 viewBox="0 0 22 22" style="enable-background:new 0 0 22 22;" xml:space="preserve">
<style type="text/css">
	.st0{fill:#FFFFFF;}
</style>
<path class="st0" d="M6.1,9.5c-0.4,0.4-0.5,1-0.1,1.4c0.4,0.4,1,0.5,1.4,0.1L6.1,9.5z M11,6.8L11.6,6c-0.4-0.3-0.9-0.3-1.3,0L11,6.8
	z M14.6,11.1c0.4,0.4,1.1,0.3,1.4-0.1c0.4-0.4,0.3-1.1-0.1-1.4L14.6,11.1z M10,15.2c0,0.6,0.4,1,1,1s1-0.4,1-1H10z M7.4,11.1
	l4.2-3.5L10.4,6L6.1,9.5L7.4,11.1z M10.4,7.5l4.2,3.5l1.3-1.5L11.6,6L10.4,7.5z M10,6.8v8.5h2V6.8H10z M17.1,4.9
	c3.4,3.4,3.4,8.8,0,12.2l1.4,1.4c4.1-4.1,4.1-10.9,0-15L17.1,4.9z M17.1,17.1c-3.4,3.4-8.8,3.4-12.2,0l-1.4,1.4
	c4.1,4.1,10.9,4.1,15,0L17.1,17.1z M4.9,17.1c-3.4-3.4-3.4-8.8,0-12.2L3.5,3.5c-4.1,4.1-4.1,10.9,0,15L4.9,17.1z M4.9,4.9
	c3.4-3.4,8.8-3.4,12.2,0l1.4-1.4c-4.1-4.1-10.9-4.1-15,0L4.9,4.9z"/>
</svg>
