<?xml version="1.0" encoding="utf-8"?>
<!-- Generator: Adobe Illustrator 26.1.0, SVG Export Plug-In . SVG Version: 6.00 Build 0)  -->
<svg version="1.1" id="Слой_1" xmlns:svgjs="http://svgjs.com/svgjs"
	 xmlns="http://www.w3.org/2000/svg" xmlns:xlink="http://www.w3.org/1999/xlink" x="0px" y="0px" viewBox="0 0 512 512"
	 style="enable-background:new 0 0 512 512;" xml:space="preserve">
<style type="text/css">
	.st0{fill:#FFFFFF;}
</style>
<g>
	<g>
		<path class="st0" d="M441.1,351.2c-0.1,0-0.3-0.1-0.4-0.1l-49.6-9.9c3.8-7.2,5.8-14.8,5.8-22.8v-98.4h9.4
			c9.5,0,17.1-7.7,17.1-17.1v-26.5c0-9.5-7.7-17.1-17.1-17.1H397v-9.4c0-39.8-16.8-76.5-44.2-102.4v-3.7c0-4.6-3.7-8.3-8.3-8.3
			c-1.6,0-3.2,0.5-4.4,1.3c-14.6-10.9-31.4-19-49.7-23.6C288.5,5.6,281.7,0,273.7,0h-35.4c-8,0-14.8,5.6-16.6,13.1
			c-18.3,4.6-35.1,12.7-49.7,23.6c-1.3-0.8-2.8-1.3-4.4-1.3c-4.6,0-8.3,3.7-8.3,8.3v3.7c-27.4,26-44.2,62.7-44.2,102.4v9.4h-9.4
			c-9.5,0-17.1,7.7-17.1,17.1v26.5c0,9.5,7.7,17.1,17.1,17.1h9.4v98.4c0,8,2,15.6,5.8,22.8l-49.6,9.9c-0.1,0-0.3,0.1-0.4,0.1
			c-31.3,7.8-53.2,35.8-53.2,68.1V486c0,14.3,11.7,26,26,26h424.6c14.3,0,26-11.7,26-26v-66.7C494.3,387.1,472.4,359.1,441.1,351.2z
			 M398.1,495.4H113.9v-44.8c0-10.1,8.2-18.2,18.2-18.2h247.7c10.1,0,18.2,8.2,18.2,18.2V495.4z M131.6,211.8v-44.2v-9.4h248.8v9.4
			v44.2v106.7c0,33.6-57,62-124.4,62s-124.4-28.4-124.4-62V211.8z M175.8,54.8c13-11,28.4-19.5,45.3-24.4v111.2h-45.3V54.8z
			 M290.8,30.4c17,4.9,32.3,13.4,45.3,24.4v86.7h-45.3V30.4z M352.8,415.8v-39.7c7-3.6,13.3-7.7,18.8-12v51.8H352.8z M175.8,415.8
			v-32.4C198.5,392,226,397,256,397s57.5-5,80.2-13.6v32.4H175.8z M140.4,415.8V364c5.5,4.4,11.8,8.4,18.8,12v39.7H140.4z
			 M406.4,175.8c0.3,0,0.6,0.2,0.6,0.6v26.5c0,0.3-0.2,0.6-0.6,0.6H397v-27.6H406.4z M380.1,141.5h-27.3V71.8
			C368.5,91.3,378.4,115.5,380.1,141.5z M238.3,16.6h35.4c0.3,0,0.6,0.2,0.6,0.6v124.4h-36.5V17.1C237.8,16.8,238,16.6,238.3,16.6z
			 M159.2,71.8v69.8h-27.3C133.6,115.5,143.5,91.3,159.2,71.8z M105.6,203.5c-0.3,0-0.6-0.2-0.6-0.6v-26.5c0-0.3,0.2-0.6,0.6-0.6
			h9.4v27.6H105.6z M34.3,486v-66.7c0-24.6,16.6-45.9,40.4-52l49.1-9.8v59.2c-15.2,3.7-26.5,17.5-26.5,33.8v44.8H43.7
			C38.5,495.4,34.3,491.2,34.3,486z M477.7,486c0,5.2-4.2,9.4-9.4,9.4h-53.6v-44.8c0-16.3-11.3-30.1-26.5-33.8v-59.2l49.1,9.8
			c23.8,6,40.4,27.4,40.4,52V486z"/>
		<path class="st0" d="M185.2,255.4h141.5c14.3,0,26-11.7,26-26v-26.5c0-14.3-11.7-26-26-26H185.2c-14.3,0-26,11.7-26,26v26.5
			C159.2,243.8,170.9,255.4,185.2,255.4z M175.8,202.9c0-5.2,4.2-9.4,9.4-9.4h141.5c5.2,0,9.4,4.2,9.4,9.4v26.5
			c0,5.2-4.2,9.4-9.4,9.4H185.2c-5.2,0-9.4-4.2-9.4-9.4V202.9z"/>
	</g>
</g>
</svg>
