<?xml version="1.0" encoding="utf-8"?>
<!-- Generator: Adobe Illustrator 26.1.0, SVG Export Plug-In . SVG Version: 6.00 Build 0)  -->
<svg version="1.1" id="Слой_1" xmlns:svgjs="http://svgjs.com/svgjs"
	 xmlns="http://www.w3.org/2000/svg" xmlns:xlink="http://www.w3.org/1999/xlink" x="0px" y="0px" viewBox="0 0 512 512"
	 style="enable-background:new 0 0 512 512;" xml:space="preserve">
<style type="text/css">
	.st0{fill:#FFFFFF;}
</style>
<g>
	<path class="st0" d="M370.3,280c8.8,0,16,7.2,16,16h16c0-17.7-14.3-32-32-32H368v-19.4h-16V264h-2.3c-17.7,0-32,14.3-32,32
		s14.3,32,32,32h2.3v32h-2.3c-8.8,0-16-7.2-16-16h-16c0,17.7,14.3,32,32,32h2.3v19.4h16V376h2.3c17.7,0,32-14.3,32-32
		s-14.3-32-32-32H368v-32H370.3z M370.3,328c8.8,0,16,7.2,16,16s-7.2,16-16,16H368v-32H370.3z M352,312h-2.3c-8.8,0-16-7.2-16-16
		s7.2-16,16-16h2.3V312z"/>
	<path class="st0" d="M408,23c-3.2,18.8-11.3,36.4-23.5,51.1c-7.5-7.7-17.8-12-28.5-12.1l0,0c-6.3,0.1-12.4,1.6-18,4.5l-69.8,1.3
		c-18.7,0.2-36.5,7.8-49.6,21L38.8,268.6c-15.6,15.6-15.6,40.9,0,56.6L88,374.5c2.8,10.1,9.5,18.7,18.6,24l131.6,76
		c5.4,3.2,11.5,5.1,17.8,5.5c6.9,5.2,15.3,8.1,24,8h152c22.1,0,40-17.9,40-40V193.8c0-18.6-7.3-36.5-20.2-49.8l-56-58.1
		c14.9-17.3,24.7-38.4,28.2-61L408,23z M50.1,280l179.8-179.8c10.3-10.1,24.1-15.8,38.6-16l18.6-0.4L261.6,91
		c-17.9,5.2-33.1,17.1-42.4,33.2L92.1,344c-1.5,2.5-2.6,5.2-3.5,8l-38.5-38.2C40.8,304.5,40.8,289.4,50.1,280z M114.7,384.8
		c-11.5-6.6-15.4-21.3-8.8-32.8c0,0,0,0,0,0L233,131.9c7.2-12.6,19-21.8,33-25.8L308.2,94l-48,49.8c-13,13.4-20.2,31.3-20.2,50V448
		c0,3.4,0.5,6.7,1.4,10L114.7,384.8z M456,193.8V448c0,13.3-10.7,24-24,24H280c-13.3,0-24-10.7-24-24V193.8
		c0.1-14.5,5.8-28.5,16-38.9l67-69.5l0,0c9.2-9.5,24.4-9.8,33.9-0.6c0,0,0.1,0.1,0.1,0.1c-2.1,1.5-4.2,2.9-6.4,4.2
		c-6.7-5.7-16.8-5-22.6,1.8c-5.7,6.7-5,16.8,1.8,22.6c6.7,5.7,16.8,5,22.6-1.8c1.8-2.1,3-4.5,3.5-7.2c4.3-2.3,8.5-5,12.4-8l56,58.3
		C450.5,165.4,456,179.3,456,193.8z"/>
</g>
</svg>
