<?xml version="1.0" encoding="utf-8"?>
<!-- Generator: Adobe Illustrator 26.1.0, SVG Export Plug-In . SVG Version: 6.00 Build 0)  -->
<svg version="1.1" id="Слой_1" xmlns:svgjs="http://svgjs.com/svgjs"
	 xmlns="http://www.w3.org/2000/svg" xmlns:xlink="http://www.w3.org/1999/xlink" x="0px" y="0px" viewBox="0 0 512 512"
	 style="enable-background:new 0 0 512 512;" xml:space="preserve">
<style type="text/css">
	.st0{fill:#FFFFFF;}
</style>
<g>
	<path class="st0" d="M496.6,299.6c-0.4-0.6-0.3-1.4,0.1-2.1l12.6-21.1c5.5-9.1,2.5-20.9-6.6-26.3c-3-1.8-6.4-2.7-9.9-2.7h-32v-25.6
		c0-10.8-6.9-20.4-17.1-24V64.8c0.2-12.5-8.7-23.4-21.1-25.4c-25.7-3.4-113-15.9-157.1-37.2c-6.1-2.9-13.2-2.8-19.3,0
		C202.4,23.4,115.1,36,89.3,39.3c-12.3,2.1-21.2,12.9-21,25.4v133.1c-10.2,3.6-17,13.2-17.1,24v25.6h-32C8.6,247.5,0,256.1,0,266.6
		c0,3.5,0.9,6.9,2.7,9.8l12.7,21.2c0.4,0.6,0.3,1.4-0.1,2.1L2.8,320.9c-5.4,9.1-2.5,20.9,6.6,26.3c3,1.8,6.4,2.7,9.8,2.7h54.4
		c26.6,105.1,146.3,151.5,172.7,160.5c6.3,2.2,13.1,2.2,19.4,0c26.4-9,146.2-55.5,172.7-160.5h54.4c10.6,0,19.2-8.6,19.2-19.2
		c0-3.5-0.9-6.9-2.7-9.8L496.6,299.6z M85.3,64.8c-0.3-4,2.3-7.6,6.2-8.5c33.8-4.4,117.2-17,162.1-38.6c1.5-0.7,3.2-0.7,4.6,0
		c44.9,21.7,128.3,34.2,162,38.6c3.9,0.9,6.6,4.5,6.3,8.5v131.5h-17.1V86.8c0-8.5-6.1-15.6-14.5-16.9c-39.3-6-94.3-16.4-132.7-31.9
		c-4-1.7-8.6-1.7-12.6,0c-38.2,15.5-93.3,25.9-132.8,31.9c-8.4,1.2-14.5,8.4-14.5,16.9v109.5H85.3V64.8z M392.5,86.8v109.5H119.5
		V86.8c40.4-6.1,96.9-16.8,136.4-32.9C296,70,352.3,80.7,392.5,86.8z M19.2,332.8c-1.2,0-2.1-0.9-2.1-2.1c0-0.4,0.1-0.8,0.3-1.1
		l12.6-21c3.7-6.1,3.7-13.7,0.1-19.8l-12.6-21.1c-0.6-1-0.3-2.3,0.7-2.9c0.3-0.2,0.7-0.3,1.1-0.3h32v25.6c0,10.9,7,20.6,17.3,24.1
		c0.2,6.2,0.8,12.4,1.6,18.6H19.2z M260.2,494.2c-2.7,0.9-5.6,0.9-8.3,0c-27.2-9.3-160-60.7-166.2-178.5h17.1
		c5.9,98.8,113.7,147.1,147.4,159.7c1.9,0.7,3.9,1.1,6,1.1c2,0,4-0.4,5.9-1.1c33.7-12.7,141.4-60.9,147.3-159.7h17.1
		C420.2,433.5,287.3,484.9,260.2,494.2z M119.8,315.7h272.5c-6.1,88-105.2,132.1-136.2,143.8C225,447.8,125.9,403.6,119.8,315.7z
		 M435.2,298.7H76.8c-4.7,0-8.5-3.8-8.5-8.5v-68.3c0-4.7,3.8-8.5,8.5-8.5h358.4c4.7,0,8.5,3.8,8.5,8.5v68.3
		C443.7,294.8,439.9,298.7,435.2,298.7z M494.7,331.7c-0.4,0.7-1.1,1.1-1.9,1.1h-50.9c0.9-6.2,1.4-12.4,1.6-18.6
		c10.3-3.5,17.3-13.2,17.3-24.1v-25.6h32c1.2,0,2.1,0.9,2.1,2.1c0,0.4-0.1,0.8-0.3,1.1l-12.6,21c-3.7,6.1-3.7,13.7-0.1,19.8
		l12.6,21.1C495,330.3,495,331.1,494.7,331.7z"/>
	<path class="st0" d="M219.4,147.6c-3.4-3.3-8.8-3.2-12.1,0.2c-3.2,3.3-3.2,8.5,0,11.9l17.1,17.1c3.3,3.3,8.7,3.3,12.1,0l68.3-68.3
		c3.3-3.4,3.2-8.8-0.2-12.1c-3.3-3.2-8.5-3.2-11.9,0l-62.2,62.2L219.4,147.6z"/>
	<path class="st0" d="M324.3,230.4H187.7c-4.7,0-8.5,3.8-8.5,8.5c0,4.7,3.8,8.5,8.5,8.5h136.5c4.7,0,8.5-3.8,8.5-8.5
		C332.8,234.2,329,230.4,324.3,230.4z"/>
	<path class="st0" d="M298.7,264.5h-85.3c-4.7,0-8.5,3.8-8.5,8.5s3.8,8.5,8.5,8.5h85.3c4.7,0,8.5-3.8,8.5-8.5
		S303.4,264.5,298.7,264.5z"/>
</g>
</svg>
