<?xml version="1.0" encoding="utf-8"?>
<!-- Generator: Adobe Illustrator 26.1.0, SVG Export Plug-In . SVG Version: 6.00 Build 0)  -->
<svg version="1.1" id="Слой_1" xmlns:svgjs="http://svgjs.com/svgjs"
	 xmlns="http://www.w3.org/2000/svg" xmlns:xlink="http://www.w3.org/1999/xlink" x="0px" y="0px" viewBox="0 0 512 512"
	 style="enable-background:new 0 0 512 512;" xml:space="preserve">
<style type="text/css">
	.st0{fill:#FFFFFF;}
</style>
<g>
	<g id="Welder">
		<path class="st0" d="M312,480H200c-66.2-0.1-119.9-53.8-120-120V104c0-39.7,32.3-72,72-72h208c39.7,0,72,32.3,72,72v256
			C431.9,426.2,378.2,479.9,312,480z M152,48c-30.9,0-56,25.1-56,56v256c0.1,57.4,46.6,103.9,104,104h112
			c57.4-0.1,103.9-46.6,104-104V104c0-30.9-25.1-56-56-56H152z"/>
		<path class="st0" d="M392,288H120c-4.4,0-8-3.6-8-8V152c0-4.4,3.6-8,8-8h272c4.4,0,8,3.6,8,8v128C400,284.4,396.4,288,392,288z
			 M128,272h256V160H128V272z"/>
		<path class="st0" d="M208,256c-4.4,0-8-3.6-8-8c0-1.7,0.6-3.4,1.6-4.8l48-64c2.7-3.5,7.7-4.2,11.2-1.6c3.5,2.7,4.2,7.7,1.6,11.2
			l-48,64C212.9,254.8,210.5,256,208,256L208,256z"/>
		<path class="st0" d="M256,256c-4.4,0-8-3.6-8-8c0-1.7,0.6-3.4,1.6-4.8l48-64c2.6-3.5,7.7-4.3,11.2-1.6c3.5,2.6,4.3,7.7,1.6,11.2
			c0,0,0,0,0,0l-48,64C260.9,254.8,258.5,256,256,256L256,256z"/>
		<path class="st0" d="M376,96H136c-4.4,0-8-3.6-8-8s3.6-8,8-8h240c4.4,0,8,3.6,8,8S380.4,96,376,96z"/>
		<path class="st0" d="M88,224H56c-4.4,0-8-3.6-8-8v-80c0-4.4,3.6-8,8-8h32c4.4,0,8,3.6,8,8v80C96,220.4,92.4,224,88,224z M64,208
			h16v-64H64V208z"/>
		<path class="st0" d="M456,224h-32c-4.4,0-8-3.6-8-8v-80c0-4.4,3.6-8,8-8h32c4.4,0,8,3.6,8,8v80C464,220.4,460.4,224,456,224z
			 M432,208h16v-64h-16V208z"/>
		<circle class="st0" cx="160" cy="360" r="8"/>
		<circle class="st0" cx="208" cy="360" r="8"/>
		<circle class="st0" cx="256" cy="360" r="8"/>
		<circle class="st0" cx="304" cy="360" r="8"/>
		<circle class="st0" cx="352" cy="360" r="8"/>
		<path class="st0" d="M152,160c-4.4,0-8-3.6-8-8v-16c0-4.4,3.6-8,8-8s8,3.6,8,8v16C160,156.4,156.4,160,152,160z"/>
		<path class="st0" d="M360,160c-4.4,0-8-3.6-8-8v-16c0-4.4,3.6-8,8-8s8,3.6,8,8v16C368,156.4,364.4,160,360,160z"/>
	</g>
</g>
</svg>
